ply
format ascii 1.0
element vertex 24
property float x
property float y
property float z
end_header
0.0134847657755017281 0.343338668346405029 0.162316381931304932
-0.0130804376676678658 0.270107537508010864 0.1002507284283638
-0.194067642092704773 0.193054899573326111 0.0705642551183700562
-0.331816554069519043 -0.0291526168584823608 0.0380391031503677368
-0.361583471298217773 -0.189578399062156677 0.236253872513771057
0.185196414589881897 0.194506809115409851 0.0854602828621864319
0.331642389297485352 -0.0232201665639877319 0.0451576560735702515
0.371864140033721924 -0.197380334138870239 0.225184723734855652
-0.00428511667996644974 -0.235285311937332153 0.0277550891041755676
-0.0639284998178482056 -0.338323652744293213 0.0215537901967763901
-0.14053751528263092 -0.691582560539245605 0.106315195560455322
-0.154959067702293396 -1.07484209537506104 -0.0333846062421798706
0.0589602775871753693 -0.336357474327087402 0.0187210738658905029
0.130644455552101135 -0.693359255790710449 0.0817151963710784912
0.130909129977226257 -1.07829010486602783 -0.0546753108501434326
-0.363803178071975708 -0.248560041189193726 0.315603911876678467
-0.363803178071975708 -0.248560041189193726 0.315603911876678467
-0.363803178071975708 -0.248560041189193726 0.315603911876678467
-0.363803178071975708 -0.248560041189193726 0.315603911876678467
0.182774990797042847 -1.12584817409515381 0.0711625963449478149
-0.363803178071975708 -0.248560041189193726 0.315603911876678467
-0.363803178071975708 -0.248560041189193726 0.315603911876678467
-0.207968845963478088 -1.12112045288085938 0.0923386961221694946
-0.363803178071975708 -0.248560041189193726 0.315603911876678467
