ply
format ascii 1.0
element vertex 24
property float x
property float y
property float z
end_header
-0.00467175804078578949 -0.250157773494720459 0.0233461838215589523
0.0500259473919868469 -0.147365406155586243 0.0383764840662479401
-0.0631688386201858521 -0.149903461337089539 0.0391076207160949707
-0.0036600092425942421 -0.368558555841445923 0.0279137734323740005
0.0877970308065414429 0.212560191750526428 0.0598524659872055054
-0.117617890238761902 0.211161211133003235 0.032134227454662323
0.0119753153994679451 -0.512937545776367188 0.0104906801134347916
0.0742131620645523071 0.572478532791137695 0.19612102210521698
-0.132688343524932861 0.577773749828338623 0.145020902156829834
0.01657901331782341 -0.578843057155609131 -0.00730116851627826691
0.103018224239349365 0.633423745632171631 0.0713118314743041992
-0.168494880199432373 0.632538259029388428 0.0202136784791946411
0.0121172266080975533 -0.776689827442169189 -0.0238395407795906067
0.102229580283164978 -0.694789767265319824 -0.0171559248119592667
-0.0695263594388961792 -0.698128759860992432 -0.00111783389002084732
0.0375503301620483398 -0.865274131298065186 -0.0754762440919876099
0.191940814256668091 -0.680479168891906738 -0.0189701598137617111
-0.158462435007095337 -0.695420622825622559 0.00791588984429836273
0.25041159987449646 -0.436453104019165039 0.0305933598428964615
-0.235887721180915833 -0.461825013160705566 0.0629688799381256104
0.276063352823257446 -0.200607672333717346 -0.0233961697667837143
-0.277449220418930054 -0.233632475137710571 -0.010731913149356842
0.295427322387695312 -0.115706421434879303 -0.0603957027196884155
-0.305257648229598999 -0.150886848568916321 -0.0504477173089981079
